<svg  class="motion-safe:animate-spin" viewBox="0 0 360 360" xmlns="http://www.w3.org/2000/svg">
  <defs>
    <linearGradient id="gradient" x1="0%" y1="0%" x2="100%" y2="0%">
      <stop offset="0%" stop-color="#FF0066" stop-opacity="1" />
      <stop offset="100%" stop-color="#8A3FFC" stop-opacity="1" />
    </linearGradient>
  </defs><path d="M180,351.24153823990906C214.4533642465418,352.15338117286984,240.4572090175547,321.28760121525426,265.27884897300356,297.3762659250338C286.9760080696732,276.47482480603816,301.1489769536198,250.92000611673836,312.92613083890143,223.19031805359143C325.89581081589176,192.6527889065664,346.8647095196248,160.66696742533276,336.7629590002428,129.06462698106958C326.65401811869805,97.4397921906484,291.71045623003914,82.33009088806126,262.724517214288,66.13947012654761C236.97548917396443,51.75688456490964,209.03836494660516,36.34000126943211,180,41.50183947756888C152.5875438352228,46.374657346977315,135.5286879515753,72.14681206078387,116.19918033185392,92.18570529752205C100.39805707813493,108.56672379686341,85.4694679144263,125.35457989581559,78.28422768404144,146.95054215700327C71.05833914340516,168.66867700338278,72.65400317299213,191.20255868702912,75.70781189526417,213.88658607845585C79.45190064549595,241.69808951243712,80.96885867947555,270.5975821435274,97.93887756325815,292.94744529550275C118.73819141530628,320.34056851073416,145.6173501858272,350.3315668355152,180,351.24153823990906" fill="url(#gradient)" />
</svg>