<svg class="motion-safe:animate-spin" viewBox="0 0 360 360" xmlns="http://www.w3.org/2000/svg">
  <defs>
    <linearGradient id="gradient" x1="0%" y1="0%" x2="100%" y2="0%">
      <stop offset="0%" stop-color="#8A3FFC" stop-opacity="1" />
      <stop offset="100%" stop-color="#FF0066" stop-opacity="1" />
    </linearGradient>
  </defs><path d="M180,340.0523211294785C212.14647116925397,339.2193320901679,231.32602028711855,304.8718483512914,254.6104371575606,282.69245678211706C274.41952192002265,263.8234659880492,295.4873252904806,246.2502990599891,305.2893032585493,220.70896235600034C315.4730973852854,194.17271471675778,314.4623875976758,165.786187059727,310.2637698626311,137.6747354660807C305.27257168799434,104.2566358116469,307.5862356496714,61.726077409359355,278.88190893347024,43.90072828229462C249.93619867273725,25.925480291642184,214.07291359712352,56.796656536259846,180,56.781105757690966C145.90086317336016,56.76554301091646,110.63129544768756,26.844420919853793,81.05249243550742,43.810439512547696C51.628770212329734,60.68750577175797,52.18303476203009,102.82663197354472,42.86258429257644,135.4413525461781C33.9332856225534,166.6873295498476,16.092453317722672,199.15263411820013,28.021215117866138,229.3809006177491C39.80664895691535,259.2459646426924,76.5722861170731,267.7334615910463,102.52636905725709,286.63330494284736C128.51995929001055,305.5619176271091,147.8555552532632,340.8852576595188,180,340.0523211294785" fill="url(#gradient)" />
</svg>